<?xml version="1.0" encoding="UTF-8"?>
<svg width="32" height="32" version="1.1" viewBox="0 0 8.4666 8.4666" xmlns="http://www.w3.org/2000/svg">
  <g transform="translate(-8.4666 -101.6)" stroke-linecap="square">
    <rect x="8.4666" y="101.6" width="8.4666" height="8.4666" fill-opacity=".19758" stroke-width=".26458"/>
    <path transform="scale(.26458)" d="m47.881 388a12 12 0 0 0-11.781 10.459 12 12 0 0 0 8.8457 13.146 12 12 0 0 0 14.172-7.0859 12 12 0 0 0-5.1172-14.91v-2e-3l0.75-1.2988-5.3965 0.34766 2.3965 4.8477 0.75-1.2988a9 9 0 0 1 4.5 7.795 9 9 0 0 1-9 9 9 9 0 0 1-9-9 9 9 0 0 1 9-9v-3a12 12 0 0 0-0.11914 0z"/>
  </g>
</svg>
