<?xml version="1.0" encoding="UTF-8" standalone="no"?>
<svg
   xmlns:dc="http://purl.org/dc/elements/1.1/"
   xmlns:cc="http://creativecommons.org/ns#"
   xmlns:rdf="http://www.w3.org/1999/02/22-rdf-syntax-ns#"
   xmlns:svg="http://www.w3.org/2000/svg"
   xmlns="http://www.w3.org/2000/svg"
   xmlns:sodipodi="http://sodipodi.sourceforge.net/DTD/sodipodi-0.dtd"
   xmlns:inkscape="http://www.inkscape.org/namespaces/inkscape"
   width="32"
   height="32"
   viewBox="0 0 8.46656 8.46656"
   version="1.1"
   id="svg8"
   inkscape:version="1.0 (4035a4fb49, 2020-05-01)"
   sodipodi:docname="buttons.svg"
   inkscape:export-filename="C:\Code\boxbopper\www\bitmap_64.png"
   inkscape:export-xdpi="96"
   inkscape:export-ydpi="96">
  <defs
     id="defs2" />
  <sodipodi:namedview
     inkscape:snap-grids="true"
     inkscape:snap-nodes="true"
     inkscape:bbox-nodes="false"
     inkscape:snap-bbox="true"
     id="base"
     pagecolor="#ffffff"
     bordercolor="#666666"
     borderopacity="1.0"
     inkscape:pageopacity="0.0"
     inkscape:pageshadow="2"
     inkscape:zoom="4.97"
     inkscape:cx="54.940405"
     inkscape:cy="19.715426"
     inkscape:document-units="px"
     inkscape:current-layer="layer1"
     inkscape:document-rotation="0"
     showgrid="true"
     units="px"
     inkscape:window-width="1280"
     inkscape:window-height="731"
     inkscape:window-x="-8"
     inkscape:window-y="-8"
     inkscape:window-maximized="1"
     inkscape:snap-object-midpoints="true"
     inkscape:snap-smooth-nodes="true">
    <inkscape:grid
       type="xygrid"
       id="grid833"
       empspacing="8"
       units="px"
       spacingx="0.26458"
       spacingy="0.26458"
       empcolor="#3f3fff"
       empopacity="0.17254902"
       color="#3f3fff"
       opacity="0.08235294"
       dotted="false" />
    <inkscape:grid
       type="xygrid"
       id="grid1737"
       spacingx="16.93312"
       spacingy="16.93312"
       empspacing="1"
       color="#ff3f3f"
       opacity="0.1254902"
       empcolor="#4d3fff"
       empopacity="0.38823529"
       dotted="false"
       units="px" />
  </sodipodi:namedview>
  <metadata
     id="metadata5">
    <rdf:RDF>
      <cc:Work
         rdf:about="">
        <dc:format>image/svg+xml</dc:format>
        <dc:type
           rdf:resource="http://purl.org/dc/dcmitype/StillImage" />
        <dc:title></dc:title>
      </cc:Work>
    </rdf:RDF>
  </metadata>
  <g
     inkscape:label="Layer 1"
     inkscape:groupmode="layer"
     id="layer1">
    <rect
       y="0"
       x="0"
       height="8.4665604"
       width="8.4665604"
       id="rect1330"
       style="fill:#000000;fill-opacity:0.201613;stroke-width:0.26458;stroke-linecap:square" />
    <path
       d="m 5.5427444,1.0397174 -2.6137613,2.6137593 -0.5611988,0.5612007 -0.00517,0.00516 0.5611988,0.561198 0.00517,-0.00516 L 5.5484283,7.3948046 6.1096274,6.833604 3.4901819,4.2146774 6.1039429,1.6009154 Z"
       style="fill:#000000;stroke-width:0.26458;stroke-linecap:square"
       id="rect1308" />
    <g
       transform="translate(0,-101.59872)"
       id="g1348">
      <rect
         style="fill:#000000;fill-opacity:0.197581;stroke-width:0.26458;stroke-linecap:square"
         id="rect1336"
         width="8.4665594"
         height="8.4665632"
         x="8.4665604"
         y="101.59872" />
      <path
         id="path1320"
         style="fill:#000000;stroke-width:1;stroke-linecap:square"
         d="m 47.880859,388 a 11.999997,11.999997 0 0 0 -11.78125,10.45898 11.999997,11.999997 0 0 0 8.845703,13.14649 11.999997,11.999997 0 0 0 14.171876,-7.08594 A 11.999997,11.999997 0 0 0 54,389.60938 v -0.002 l 0.75,-1.29883 -5.396484,0.34766 2.396484,4.84766 0.75,-1.29883 A 8.9999951,9.0000023 0 0 1 57,400 a 8.9999951,9.0000023 0 0 1 -9,9 8.9999951,9.0000023 0 0 1 -9,-9 8.9999951,9.0000023 0 0 1 9,-9 v -3 a 11.999997,11.999997 0 0 0 -0.119141,0 z"
         transform="scale(0.26458)" />
    </g>
  </g>
</svg>
